<svg width="800" height="600" viewBox="0 0 800 600" xmlns="http://www.w3.org/2000/svg">
  
  <rect x="300" y="20" width="200" height="40" rx="8" fill="#d9d2e9" stroke="#ccdaf7" stroke-width="2"/>
  <text x="400" y="45" text-anchor="middle" font-family="Arial, sans-serif" font-size="18" font-weight="bold" fill="#6B4C7A">RISC-V Extensions</text>
  
  
  <rect x="50" y="100" width="120" height="60" rx="10" fill="#f1cdcc" stroke="#e3b9b0" stroke-width="2"/>
  <text x="110" y="135" text-anchor="middle" font-family="Arial, sans-serif" font-size="16" font-weight="bold" fill="#8B4545">RV32I</text>
  
  <rect x="190" y="100" width="120" height="60" rx="10" fill="#f1cdcc" stroke="#e3b9b0" stroke-width="2"/>
  <text x="250" y="135" text-anchor="middle" font-family="Arial, sans-serif" font-size="16" font-weight="bold" fill="#8B4545">RV64I</text>
  
  <rect x="330" y="100" width="120" height="60" rx="10" fill="#f1cdcc" stroke="#e3b9b0" stroke-width="2"/>
  <text x="390" y="135" text-anchor="middle" font-family="Arial, sans-serif" font-size="16" font-weight="bold" fill="#8B4545">RV128I</text>
  
  
  <rect x="50" y="200" width="100" height="50" rx="8" fill="#ccdaf7" stroke="#d1e2f3" stroke-width="2"/>
  <text x="100" y="230" text-anchor="middle" font-family="Arial, sans-serif" font-size="14" fill="#4B4B8B">M</text>
  
  <rect x="170" y="200" width="100" height="50" rx="8" fill="#fdf2cd" stroke="#fae5ce" stroke-width="2"/>
  <text x="220" y="230" text-anchor="middle" font-family="Arial, sans-serif" font-size="14" fill="#8B7500">A</text>
  
  <rect x="290" y="200" width="100" height="50" rx="8" fill="#daead3" stroke="#d1e0e3" stroke-width="2"/>
  <text x="340" y="230" text-anchor="middle" font-family="Arial, sans-serif" font-size="14" fill="#2E8B57">F</text>
  
  <rect x="410" y="200" width="100" height="50" rx="8" fill="#d1e0e3" stroke="#ccdaf7" stroke-width="2"/>
  <text x="460" y="230" text-anchor="middle" font-family="Arial, sans-serif" font-size="14" fill="#1E4D6B">D</text>
  
  <rect x="530" y="200" width="100" height="50" rx="8" fill="#e9d1dc" stroke="#f1cdcc" stroke-width="2"/>
  <text x="580" y="230" text-anchor="middle" font-family="Arial, sans-serif" font-size="14" fill="#8B1538">Q</text>
  
  <rect x="650" y="200" width="100" height="50" rx="8" fill="#d9d2e9" stroke="#ccdaf7" stroke-width="2"/>
  <text x="700" y="230" text-anchor="middle" font-family="Arial, sans-serif" font-size="14" fill="#6B238E">C</text>
  
  
  <rect x="50" y="290" width="100" height="50" rx="8" fill="#d1e2f3" stroke="#d1e0e3" stroke-width="2"/>
  <text x="100" y="320" text-anchor="middle" font-family="Arial, sans-serif" font-size="14" fill="#4682B4">V</text>
  
  <rect x="170" y="290" width="100" height="50" rx="8" fill="#fae5ce" stroke="#fdf2cd" stroke-width="2"/>
  <text x="220" y="320" text-anchor="middle" font-family="Arial, sans-serif" font-size="14" fill="#8B7355">B</text>
  
  <rect x="290" y="290" width="100" height="50" rx="8" fill="#d9d2e9" stroke="#e9d1dc" stroke-width="2"/>
  <text x="340" y="320" text-anchor="middle" font-family="Arial, sans-serif" font-size="14" fill="#6C3483">P</text>
  
  <rect x="410" y="290" width="100" height="50" rx="8" fill="#fae5ce" stroke="#e3b9b0" stroke-width="2"/>
  <text x="460" y="320" text-anchor="middle" font-family="Arial, sans-serif" font-size="14" fill="#CD853F">J</text>
  
  <rect x="530" y="290" width="100" height="50" rx="8" fill="#daead3" stroke="#d1e0e3" stroke-width="2"/>
  <text x="580" y="320" text-anchor="middle" font-family="Arial, sans-serif" font-size="14" fill="#4A7C4A">T</text>
  
  <rect x="650" y="290" width="100" height="50" rx="8" fill="#fdf2cd" stroke="#fae5ce" stroke-width="2"/>
  <text x="700" y="320" text-anchor="middle" font-family="Arial, sans-serif" font-size="14" fill="#CD853F">Zk</text>
  
  
  <rect x="50" y="380" width="120" height="50" rx="8" fill="#ccdaf7" stroke="#d1e2f3" stroke-width="2"/>
  <text x="110" y="410" text-anchor="middle" font-family="Arial, sans-serif" font-size="14" fill="#4A5F7A">S</text>
  
  <rect x="190" y="380" width="120" height="50" rx="8" fill="#fae5ce" stroke="#e3b9b0" stroke-width="2"/>
  <text x="250" y="410" text-anchor="middle" font-family="Arial, sans-serif" font-size="14" fill="#7A5F4A">H</text>
  
  
  <rect x="50" y="470" width="150" height="50" rx="8" fill="#d1e0e3" stroke="#ccdaf7" stroke-width="2"/>
  <text x="125" y="500" text-anchor="middle" font-family="Arial, sans-serif" font-size="14" fill="#606060">X-extensions</text>
  
  
  <rect x="480" y="100" width="250" height="60" rx="10" fill="#fdf2cd" stroke="#fae5ce" stroke-width="2" stroke-dasharray="5,5"/>
  <text x="605" y="135" text-anchor="middle" font-family="Arial, sans-serif" font-size="16" font-weight="bold" fill="#8B6914">G = IMAFD</text>
</svg>
