<svg width="1000" height="700" xmlns="http://www.w3.org/2000/svg">
  <!-- Уровень приложений -->
  <text x="275" y="30" text-anchor="middle" font-family="Arial" font-size="18" font-weight="bold" fill="#b8726b">Уровень приложений</text>
  
  <!-- Доверенные приложения (недоступны) -->
  <rect x="50" y="50" width="200" height="60" rx="10" ry="10" fill="#e9d1dc" stroke="#d4a6b7" stroke-width="2" stroke-dasharray="5,5"/>
  <text x="150" y="75" text-anchor="middle" font-family="Arial" font-size="16" fill="#d4a6b7">Доверенные приложения</text>
  <text x="150" y="95" text-anchor="middle" font-family="Arial" font-size="16" fill="#d4a6b7">(TA) - НЕДОСТУПНЫ</text>
  
  <!-- Обычные приложения -->
  <rect x="300" y="50" width="200" height="60" rx="10" ry="10" fill="#daead3" stroke="#a8c896"/>
  <text x="400" y="85" text-anchor="middle" font-family="Arial" font-size="16" fill="#7ba05d">Обычные приложения</text>
  

  <!-- Уровень операционных систем -->
  <text x="400" y="160" text-anchor="middle" font-family="Arial" font-size="18" font-weight="bold" fill="#b8726b">Уровень ОС</text>
  
  <!-- Rich OS -->
  <rect x="50" y="180" width="200" height="60" rx="10" ry="10" fill="#daead3" stroke="#a8c896" stroke-width="2"/>
  <text x="150" y="205" text-anchor="middle" font-family="Arial" font-size="16" fill="#7ba05d">Богатая ОС</text>
  <text x="150" y="225" text-anchor="middle" font-family="Arial" font-size="16" fill="#7ba05d">(Linux/Android)</text>
  
  <!-- SecureOS отсутствует -->
  <rect x="300" y="180" width="200" height="60" rx="10" ry="10" fill="#f1cdcc" stroke="#e59b95" stroke-width="2"/>
  <text x="400" y="205" text-anchor="middle" font-family="Arial" font-size="16" fill="#e59b95">Доверенная ОС</text>
  <text x="400" y="225" text-anchor="middle" font-family="Arial" font-size="16" fill="#e59b95">ОТСУТСТВУЕТ</text>

  <!-- Уровень программного интерфейса -->
  <text x="400" y="290" text-anchor="middle" font-family="Arial" font-size="18" font-weight="bold" fill="#b8726b">Уровень API</text>
  
  <!-- TEE Client API -->
  <rect x="50" y="310" width="200" height="60" rx="10" ry="10" fill="#fdf2cd" stroke="#f5d981" stroke-width="2"/>
  <text x="150" y="335" text-anchor="middle" font-family="Arial" font-size="16" fill="#d4b83d">TEE Client API</text>
  <text x="150" y="355" text-anchor="middle" font-family="Arial" font-size="16" fill="#d4b83d">Частично реализован</text>
  
  <!-- Global Platform API -->
  <rect x="300" y="310" width="200" height="60" rx="10" ry="10" fill="#f1cdcc" stroke="#e59b95" stroke-width="2"/>
  <text x="400" y="335" text-anchor="middle" font-family="Arial" font-size="16" fill="#e59b95">Global Platform API</text>
  <text x="400" y="355" text-anchor="middle" font-family="Arial" font-size="16" fill="#e59b95">ОТСУТСТВУЕТ</text>

  <!-- Уровень аппаратуры -->
  <text x="400" y="420" text-anchor="middle" font-family="Arial" font-size="18" font-weight="bold" fill="#b8726b">Аппаратный уровень</text>
  
  <!-- WorldGuard Extension (смещен левее) -->
  <rect x="125" y="440" width="300" height="60" rx="10" ry="10" fill="#d1e2f3" stroke="#7eb3e3" stroke-width="2"/>
  <text x="275" y="465" text-anchor="middle" font-family="Arial" font-size="16" fill="#4a7db8">RISC-V WorldGuard Extension</text>
  <text x="275" y="485" text-anchor="middle" font-family="Arial" font-size="16" fill="#4a7db8">В разработке</text>

  <!-- Разделение миров -->
  <line x1="50" y1="530" x2="500" y2="530" stroke="#b8726b" stroke-width="2" stroke-dasharray="10,5"/>
  <text x="275" y="520" text-anchor="middle" font-family="Arial" font-size="14" fill="#b8726b">Разделение миров</text>

  <!-- Normal World -->
  <rect x="50" y="550" width="200" height="60" rx="10" ry="10" fill="#daead3" stroke="#a8c896" stroke-width="2"/>
  <text x="150" y="575" text-anchor="middle" font-family="Arial" font-size="16" fill="#7ba05d">Обычный мир</text>
  <text x="150" y="595" text-anchor="middle" font-family="Arial" font-size="16" fill="#7ba05d">(Normal World)</text>
  
  <!-- Secure World -->
  <rect x="300" y="550" width="200" height="60" rx="10" ry="10" fill="#ccdaf7" stroke="#7eb3e3" stroke-width="2"/>
  <text x="400" y="575" text-anchor="middle" font-family="Arial" font-size="16" fill="#4a7db8">Безопасный мир</text>
  <text x="400" y="595" text-anchor="middle" font-family="Arial" font-size="16" fill="#4a7db8">(Secure World)</text>

  <!-- Стрелки зависимостей -->
  <!-- От обычных приложений к Rich OS -->
  <line x1="400" y1="110" x2="150" y2="180" stroke="#7ba05d" stroke-width="2" marker-end="url(#arrowgreen)"/>
  
  <!-- От TA к SecureOS (прерванная) -->
  <line x1="150" y1="110" x2="400" y2="180" stroke="#e59b95" stroke-width="2" stroke-dasharray="5,5" marker-end="url(#arrowred)"/>
  
  <!-- От Rich OS к TEE Client API -->
  <line x1="150" y1="240" x2="150" y2="310" stroke="#7ba05d" stroke-width="2" marker-end="url(#arrowgreen)"/>
  
  <!-- От SecureOS к Global Platform API (прерванная) -->
  <line x1="400" y1="240" x2="400" y2="310" stroke="#e59b95" stroke-width="2" stroke-dasharray="5,5" marker-end="url(#arrowred)"/>
  
  <!-- К WorldGuard -->
  <line x1="150" y1="370" x2="225" y2="440" stroke="#7ba05d" stroke-width="2" marker-end="url(#arrowblue)"/>
  <line x1="400" y1="370" x2="325" y2="440" stroke="#e59b95" stroke-width="2" stroke-dasharray="5,5" marker-end="url(#arrowblue)"/>

  <!-- Легенда -->
  <rect x="550" y="160" width="320" height="200" rx="10" ry="10" fill="#fae5ce" stroke="#e6c278" stroke-width="1"/>
  <text x="710" y="200" text-anchor="middle" font-family="Arial" font-size="16" font-weight="bold" fill="#c19b3a">Легенда</text>
  
  <rect x="570" y="210" width="20" height="15" rx="3" ry="3" fill="#daead3"/>
  <text x="600" y="222" font-family="Arial" font-size="14" fill="#7ba05d">Доступно и зрелое</text>
  
  <rect x="570" y="235" width="20" height="15" rx="3" ry="3" fill="#fdf2cd"/>
  <text x="600" y="247" font-family="Arial" font-size="14" fill="#d4b83d">Частично реализовано</text>
  
  <rect x="570" y="260" width="20" height="15" rx="3" ry="3" fill="#f1cdcc"/>
  <text x="600" y="272" font-family="Arial" font-size="14" fill="#e59b95">Отсутствует/критический пробел</text>
  
  <rect x="570" y="285" width="20" height="15" rx="3" ry="3" fill="#d1e2f3"/>
  <text x="600" y="297" font-family="Arial" font-size="14" fill="#4a7db8">В разработке</text>
  
  <line x1="570" y1="315" x2="590" y2="315" stroke="#e59b95" stroke-width="2" stroke-dasharray="3,3"/>
  <text x="600" y="320" font-family="Arial" font-size="14" fill="#e59b95">Разрывы в цепочке доверия</text>

  <!-- Определение стрелок -->
  <defs>
    <marker id="arrowgreen" markerWidth="10" markerHeight="10" refX="8" refY="3" orient="auto">
      <polygon points="0 0, 10 3, 0 6" fill="#7ba05d"/>
    </marker>
    <marker id="arrowred" markerWidth="10" markerHeight="10" refX="8" refY="3" orient="auto">
      <polygon points="0 0, 10 3, 0 6" fill="#e59b95"/>
    </marker>
    <marker id="arrowblue" markerWidth="10" markerHeight="10" refX="8" refY="3" orient="auto">
      <polygon points="0 0, 10 3, 0 6" fill="#4a7db8"/>
    </marker>
  </defs>
</svg>
