<svg width="600" height="800" xmlns="http://www.w3.org/2000/svg">
  <defs>
    <style>
      .title-text { font-family: Arial, sans-serif; font-size: 20px; font-weight: bold; text-anchor: middle; }
      .main-text { font-family: Arial, sans-serif; font-size: 18px; font-weight: bold; text-anchor: middle; }
      .sub-text { font-family: Arial, sans-serif; font-size: 16px; text-anchor: middle; }
      .arrow { stroke-width: 3; fill: none; marker-end: url(#arrowhead); }
      .verification-text { font-family: Arial, sans-serif; font-size: 16px; fill: #8b4513; text-anchor: middle; }
    </style>
    <marker id="arrowhead" markerWidth="10" markerHeight="7" 
            refX="9" refY="3.5" orient="auto">
      <polygon points="0 0, 10 3.5, 0 7" fill="#8b4513" />
    </marker>
  </defs>
  
  <!-- Rich OS -->
  <rect x="100" y="50" width="400" height="80" rx="15" ry="15" 
        fill="#e3b9b0" stroke="#c8958a" stroke-width="2"/>
  <text x="300" y="80" class="main-text" fill="#a0726a">Rich OS (Linux)</text>
  <text x="300" y="105" class="sub-text" fill="#a0726a">Основная операционная система</text>
  
  <!-- Arrow 1 -->
  <line x1="300" y1="145" x2="300" y2="170" class="arrow" stroke="#8b4513"/>
  <text x="420" y="160" class="verification-text">Проверяется Secure OS</text>
  
  <!-- Secure OS -->
  <rect x="100" y="180" width="400" height="80" rx="15" ry="15" 
        fill="#daead3" stroke="#b8d1a8" stroke-width="2"/>
  <text x="300" y="210" class="main-text" fill="#7fa76b">Secure OS</text>
  <text x="300" y="235" class="sub-text" fill="#7fa76b">Безопасная операционная система</text>
  
  <!-- Arrow 2 -->
  <line x1="300" y1="275" x2="300" y2="300" class="arrow" stroke="#8b4513"/>
  <text x="420" y="290" class="verification-text">Проверяется OpenSBI</text>
  
  <!-- OpenSBI -->
  <rect x="100" y="310" width="400" height="80" rx="15" ry="15" 
        fill="#ccdaf7" stroke="#a3c2f0" stroke-width="2"/>
  <text x="300" y="340" class="main-text" fill="#7ba3d9">OpenSBI</text>
  <text x="300" y="365" class="sub-text" fill="#7ba3d9">Supervisor Binary Interface</text>
  
  <!-- Arrow 3 -->
  <line x1="300" y1="405" x2="300" y2="430" class="arrow" stroke="#8b4513"/>
  <text x="420" y="420" class="verification-text">Проверяется FSBL</text>
  
  <!-- FSBL -->
  <rect x="100" y="440" width="400" height="80" rx="15" ry="15" 
        fill="#fae5ce" stroke="#f4d1a3" stroke-width="2"/>
  <text x="300" y="470" class="main-text" fill="#d4a76a">FSBL</text>
  <text x="300" y="495" class="sub-text" fill="#d4a76a">First Stage Boot Loader</text>
  
  <!-- Arrow 4 -->
  <line x1="300" y1="535" x2="300" y2="560" class="arrow" stroke="#8b4513"/>
  <text x="420" y="550" class="verification-text">Проверяется Boot ROM</text>
  
  <!-- Boot ROM -->
  <rect x="100" y="570" width="400" height="80" rx="15" ry="15" 
        fill="#d1e0e3" stroke="#a8c7cd" stroke-width="2"/>
  <text x="300" y="600" class="main-text" fill="#7ba8b0">Boot ROM</text>
  <text x="300" y="625" class="sub-text" fill="#7ba8b0">Корень доверия (неизменяемый)</text>
  
  <!-- OTP Memory -->
  <rect x="150" y="705" width="300" height="60" rx="15" ry="15" 
        fill="#e9d1dc" stroke="#dbb3c5" stroke-width="2"/>
  <text x="300" y="730" class="main-text" fill="#c5879a">OTP Memory</text>
  <text x="300" y="750" class="sub-text" fill="#c5879a">Криптографические ключи</text>
  
  <!-- Arrow from OTP to Boot ROM -->
  <line x1="300" y1="685" x2="300" y2="665" class="arrow" stroke="#8b4513"/>
  
  <!-- Title -->
  <text x="300" y="25" class="title-text" fill="#8b4513">Цепочка доверия в RISC-V системе</text>
  
  <!-- Trust direction indicator -->
  <text x="50" y="400" class="sub-text" fill="#8b4513" transform="rotate(-90, 50, 400)">Направление доверия</text>
  <line x1="70" y1="650" x2="70" y2="80" stroke="#8b4513" stroke-width="2" marker-end="url(#arrowhead)"/>
  
</svg>
