<svg width="1400" height="1000" xmlns="http://www.w3.org/2000/svg">
  <!-- Определения стилей -->
  <defs>
    <style>
      .swimlane-header { font-size: 18px; font-weight: bold; text-anchor: middle; }
      .action-text { font-size: 16px; text-anchor: middle; }
      .state-text { font-size: 16px; font-weight: bold; text-anchor: middle; }
      .phase-label { font-size: 20px; font-weight: bold; text-anchor: start; }
    </style>
    <!-- Определения стрелок разных цветов -->
    <marker id="arrow-root" markerWidth="12" markerHeight="8" 
     refX="12" refY="4" orient="auto">
      <polygon points="0 0, 12 4, 0 8" fill="#9d8760" />
    </marker>
    <marker id="arrow-secure" markerWidth="12" markerHeight="8" 
     refX="12" refY="4" orient="auto">
      <polygon points="0 0, 12 4, 0 8" fill="#728a63" />
    </marker>
    <marker id="arrow-ta" markerWidth="12" markerHeight="8" 
     refX="12" refY="4" orient="auto">
      <polygon points="0 0, 12 4, 0 8" fill="#5f7db3" />
    </marker>
    <marker id="arrow-normal" markerWidth="12" markerHeight="8" 
     refX="12" refY="4" orient="auto">
      <polygon points="0 0, 12 4, 0 8" fill="#8b645d" />
    </marker>
    <marker id="arrow-purple" markerWidth="12" markerHeight="8" 
     refX="12" refY="4" orient="auto">
      <polygon points="0 0, 12 4, 0 8" fill="#7a6c94" />
    </marker>
    <marker id="arrow-pink" markerWidth="12" markerHeight="8" 
     refX="12" refY="4" orient="auto">
      <polygon points="0 0, 12 4, 0 8" fill="#9a6a84" />
    </marker>
  </defs>

  <!-- Заголовки swimlanes -->
  <rect x="50" y="30" width="280" height="60" rx="15" fill="#f1cdcc" stroke="#c4958c" stroke-width="2"/>
  <text x="190" y="65" class="swimlane-header" fill="#8b645d">Обычный мир</text>

  <rect x="350" y="30" width="240" height="60" rx="15" fill="#fae5ce" stroke="#d4b899" stroke-width="2"/>
  <text x="470" y="65" class="swimlane-header" fill="#9d8760">Root Task</text>

  <rect x="610" y="30" width="280" height="60" rx="15" fill="#daead3" stroke="#a8c798" stroke-width="2"/>
  <text x="750" y="65" class="swimlane-header" fill="#728a63">Безопасная ОС</text>

  <rect x="910" y="30" width="350" height="60" rx="15" fill="#ccdaf7" stroke="#95b3e8" stroke-width="2"/>
  <text x="1085" y="65" class="swimlane-header" fill="#5f7db3">Доверенное приложение</text>

  <!-- Фаза создания -->
  <text x="60" y="130" class="phase-label" fill="#8b645d">Фаза создания:</text>

  <!-- TEEC_OpenSession -->
  <rect x="70" y="150" width="220" height="50" rx="12" fill="#e3b9b0" stroke="#b58a7e" stroke-width="2"/>
  <text x="180" y="180" class="action-text" fill="#8b645d">TEEC_OpenSession</text>

  <!-- Запрос на загрузку образа -->
  <rect x="370" y="150" width="200" height="50" rx="12" fill="#fdf2cd" stroke="#d1c492" stroke-width="2"/>
  <text x="470" y="180" class="action-text" fill="#9d8760">Получение запроса</text>

  <!-- Стрелка от TEEC_OpenSession к Root Task -->
  <line x1="290" y1="175" x2="370" y2="175" stroke="#9d8760" stroke-width="2" marker-end="url(#arrow-root)"/>

  <!-- Загрузка образа -->
  <rect x="630" y="200" width="240" height="50" rx="12" fill="#d1e0e3" stroke="#9bb7bb" stroke-width="2"/>
  <text x="750" y="230" class="action-text" fill="#658083">Загрузка образа (ELF)</text>

  <!-- Стрелка от Root Task к Безопасной ОС -->
  <line x1="570" y1="175" x2="630" y2="225" stroke="#728a63" stroke-width="2" marker-end="url(#arrow-secure)"/>

  <!-- Инициализация дескрипторов -->
  <rect x="630" y="285" width="240" height="50" rx="12" fill="#d9d2e9" stroke="#ad9cc9" stroke-width="2"/>
  <text x="750" y="315" class="action-text" fill="#7a6c94">Инициализация дескрипторов</text>

  <!-- Создание процесса -->
  <rect x="630" y="370" width="240" height="50" rx="12" fill="#daead3" stroke="#a8c798" stroke-width="2"/>
  <text x="750" y="400" class="action-text" fill="#728a63">Создание процесса/потока</text>

  <!-- TA_CreateEntryPoint -->
  <rect x="930" y="410" width="310" height="50" rx="12" fill="#d1e2f3" stroke="#9bc0e1" stroke-width="2"/>
  <text x="1085" y="440" class="action-text" fill="#5f7db3">TA_CreateEntryPoint()</text>

  <!-- Стрелка от создания процесса к TA_CreateEntryPoint -->
  <line x1="870" y1="395" x2="930" y2="435" stroke="#5f7db3" stroke-width="2" marker-end="url(#arrow-ta)"/>

  <!-- TA_OpenSessionEntryPoint -->
  <rect x="930" y="500" width="310" height="50" rx="12" fill="#e9d1dc" stroke="#cd9cb4" stroke-width="2"/>
  <text x="1085" y="530" class="action-text" fill="#9a6a84">TA_OpenSessionEntryPoint()</text>

  <!-- Session ID обратно в Root Task -->
  <rect x="370" y="570" width="200" height="50" rx="12" fill="#fae5ce" stroke="#d4b899" stroke-width="2"/>
  <text x="470" y="605" class="action-text" fill="#9d8760">Подготовка Session ID</text>

  <!-- Стрелка от TA обратно к Root Task -->
  <line x1="930" y1="525" x2="570" y2="595" stroke="#9d8760" stroke-width="2" marker-end="url(#arrow-root)"/>

  <!-- Возврат клиенту -->
  <rect x="70" y="640" width="220" height="50" rx="12" fill="#f1cdcc" stroke="#c4958c" stroke-width="2"/>
  <text x="180" y="675" class="action-text" fill="#8b645d">Получение Session ID</text>

  <!-- Стрелка от Root Task обратно к Обычному миру -->
  <line x1="370" y1="595" x2="290" y2="665" stroke="#8b645d" stroke-width="2" marker-end="url(#arrow-normal)"/>

  <!-- Состояние ожидания -->
  <rect x="930" y="640" width="310" height="50" rx="12" fill="#ccdaf7" stroke="#95b3e8" stroke-width="2"/>
  <text x="1085" y="675" class="state-text" fill="#5f7db3">Состояние: Ожидание команд</text>

  <!-- Фаза исполнения -->
  <text x="60" y="740" class="phase-label" fill="#728a63">Фаза исполнения (цикл):</text>

  <!-- TEEC_InvokeCommand -->
  <rect x="70" y="760" width="220" height="50" rx="12" fill="#e3b9b0" stroke="#b58a7e" stroke-width="2"/>
  <text x="180" y="795" class="action-text" fill="#8b645d">TEEC_InvokeCommand</text>

  <!-- Обработка в Root Task -->
  <rect x="370" y="760" width="200" height="50" rx="12" fill="#fdf2cd" stroke="#d1c492" stroke-width="2"/>
  <text x="470" y="795" class="action-text" fill="#9d8760">Активация потока ДП</text>

  <!-- Стрелка от TEEC_InvokeCommand к Root Task -->
  <line x1="290" y1="785" x2="370" y2="785" stroke="#9d8760" stroke-width="2" marker-end="url(#arrow-root)"/>

  <!-- TA_InvokeCommandEntryPoint -->
  <rect x="930" y="760" width="310" height="50" rx="12" fill="#d1e2f3" stroke="#9bc0e1" stroke-width="2"/>
  <text x="1085" y="795" class="action-text" fill="#5f7db3">TA_InvokeCommandEntryPoint()</text>

  <!-- Стрелка от Root Task к TA -->
  <line x1="570" y1="785" x2="930" y2="785" stroke="#5f7db3" stroke-width="2" marker-end="url(#arrow-ta)"/>

  <!-- Результат выполнения -->
  <rect x="370" y="830" width="200" height="50" rx="12" fill="#fae5ce" stroke="#d4b899" stroke-width="2"/>
  <text x="470" y="865" class="action-text" fill="#9d8760">Обработка результата</text>

  <!-- Стрелка от TA обратно к Root Task -->
  <line x1="930" y1="785" x2="570" y2="855" stroke="#9d8760" stroke-width="2" marker-end="url(#arrow-root)"/>

  <!-- Ответ клиенту -->
  <rect x="70" y="900" width="220" height="50" rx="12" fill="#f1cdcc" stroke="#c4958c" stroke-width="2"/>
  <text x="180" y="935" class="action-text" fill="#8b645d">Получение ответа</text>

  <!-- Стрелка от Root Task к клиенту -->
  <line x1="370" y1="855" x2="290" y2="925" stroke="#8b645d" stroke-width="2" marker-end="url(#arrow-normal)"/>

  <!-- Фаза завершения -->
  <text x="60" y="980" class="phase-label" fill="#9a6a84">Фаза завершения: TEEC_CloseSession → TA_DestroyEntryPoint() → Освобождение ресурсов</text>

  <!-- Соединительные стрелки внутри этапов -->
  <line x1="750" y1="270" x2="750" y2="280" stroke="#7a6c94" stroke-width="2" marker-end="url(#arrow-purple)"/>
  <line x1="750" y1="350" x2="750" y2="365" stroke="#728a63" stroke-width="2" marker-end="url(#arrow-secure)"/>
  <line x1="1085" y1="480" x2="1085" y2="495" stroke="#9a6a84" stroke-width="2" marker-end="url(#arrow-pink)"/>
  <line x1="1085" y1="550" x2="1085" y2="640" stroke="#5f7db3" stroke-width="2" marker-end="url(#arrow-ta)"/>

</svg>
