<svg width="1000" height="700" xmlns="http://www.w3.org/2000/svg">
  <defs>
    <style>
      .text { font-family: Arial, sans-serif; font-size: 18px; text-anchor: middle; dominant-baseline: middle; }
      .small-text { font-family: Arial, sans-serif; font-size: 16px; text-anchor: middle; dominant-baseline: middle; }
      .tiny-text { font-family: Arial, sans-serif; font-size: 15px; text-anchor: middle; dominant-baseline: middle; }
      .arrow { stroke-width: 2; fill: none; }
    </style>
    <marker id="arrowhead-green" markerWidth="10" markerHeight="7" refX="9" refY="3.5" orient="auto">
      <polygon points="0 0, 10 3.5, 0 7" fill="#7db87d" />
    </marker>
    <marker id="arrowhead-blue" markerWidth="10" markerHeight="7" refX="9" refY="3.5" orient="auto">
      <polygon points="0 0, 10 3.5, 0 7" fill="#6ba3e6" />
    </marker>
    <marker id="arrowhead-orange" markerWidth="10" markerHeight="7" refX="9" refY="3.5" orient="auto">
      <polygon points="0 0, 10 3.5, 0 7" fill="#d4b847" />
    </marker>
    <marker id="arrowhead-purple" markerWidth="10" markerHeight="7" refX="9" refY="3.5" orient="auto">
      <polygon points="0 0, 10 3.5, 0 7" fill="#a085c4" />
    </marker>
  </defs>

  <!-- Заголовок -->
  <text x="500" y="30" class="text" fill="#6b9aa3" style="font-size: 20px; font-weight: bold;">Модель безопасности на основе Capability</text>

  <!-- Ядро безопасной ОС (TCB) -->
  <rect x="380" y="60" width="240" height="100" rx="15" ry="15" fill="#d1e0e3" stroke="#a1c5cc" stroke-width="3"/>
  <text x="500" y="90" class="text" fill="#6b9aa3" style="font-weight: bold;">Ядро Безопасной ОС</text>
  <text x="500" y="110" class="small-text" fill="#6b9aa3">(TCB)</text>
  <text x="500" y="130" class="small-text" fill="#6b9aa3">Управление дескрипторами</text>
  <text x="500" y="150" class="small-text" fill="#6b9aa3">Проверка мандатов</text>

  <!-- Доверенное приложение A -->
  <rect x="50" y="220" width="180" height="80" rx="15" ry="15" fill="#daead3" stroke="#b8d4a8" stroke-width="2"/>
  <text x="140" y="245" class="text" fill="#7db87d">Доверенное</text>
  <text x="140" y="265" class="text" fill="#7db87d">приложение A</text>
  <text x="140" y="285" class="small-text" fill="#7db87d">(TA-A)</text>

  <!-- Доверенное приложение B -->
  <rect x="280" y="220" width="180" height="80" rx="15" ry="15" fill="#ccdaf7" stroke="#9ac4f2" stroke-width="2"/>
  <text x="370" y="245" class="text" fill="#6ba3e6">Доверенное</text>
  <text x="370" y="265" class="text" fill="#6ba3e6">приложение B</text>
  <text x="370" y="285" class="small-text" fill="#6ba3e6">(TA-B)</text>

  <!-- Доверенное приложение C -->
  <rect x="540" y="220" width="180" height="80" rx="15" ry="15" fill="#e9d1dc" stroke="#d9a8c4" stroke-width="2"/>
  <text x="630" y="245" class="text" fill="#c5789f">Доверенное</text>
  <text x="630" y="265" class="text" fill="#c5789f">приложение C</text>
  <text x="630" y="285" class="small-text" fill="#c5789f">(TA-C)</text>

  <!-- Корневая задача -->
  <rect x="770" y="220" width="180" height="80" rx="15" ry="15" fill="#fdf2cd" stroke="#f0d885" stroke-width="2"/>
  <text x="860" y="245" class="text" fill="#d4b847">Корневая задача</text>
  <text x="860" y="265" class="text" fill="#d4b847">(Root Task)</text>

  <!-- Объекты -->
  <rect x="150" y="420" width="120" height="60" rx="10" ry="10" fill="#f1cdcc" stroke="#d99f96" stroke-width="2"/>
  <text x="210" y="440" class="small-text" fill="#c5726b">Объект 1</text>
  <text x="210" y="460" class="small-text" fill="#c5726b">(Файл)</text>

  <rect x="320" y="420" width="120" height="60" rx="10" ry="10" fill="#fae5ce" stroke="#e6c095" stroke-width="2"/>
  <text x="380" y="440" class="small-text" fill="#cc9e5c">Объект 2</text>
  <text x="380" y="460" class="small-text" fill="#cc9e5c">(Память)</text>

  <rect x="490" y="420" width="120" height="60" rx="10" ry="10" fill="#d9d2e9" stroke="#b8a8d4" stroke-width="2"/>
  <text x="550" y="440" class="small-text" fill="#a085c4">Объект 3</text>
  <text x="550" y="460" class="small-text" fill="#a085c4">(Сеть)</text>

  <rect x="660" y="420" width="120" height="60" rx="10" ry="10" fill="#daead3" stroke="#b8d4a8" stroke-width="2"/>
  <text x="720" y="440" class="small-text" fill="#7db87d">Объект 4</text>
  <text x="720" y="460" class="small-text" fill="#7db87d">(Устройство)</text>

  <!-- Дескрипторы (handles) -->
  <rect x="50" y="340" width="80" height="40" rx="8" ry="8" fill="#e3b9b0" stroke="#d19189" stroke-width="1"/>
  <text x="90" y="355" class="tiny-text" fill="#a6655b">Handle-1</text>
  <text x="90" y="370" class="tiny-text" fill="#a6655b">RW</text>

  <rect x="150" y="340" width="80" height="40" rx="8" ry="8" fill="#e3b9b0" stroke="#d19189" stroke-width="1"/>
  <text x="190" y="355" class="tiny-text" fill="#a6655b">Handle-2</text>
  <text x="190" y="370" class="tiny-text" fill="#a6655b">R</text>

  <rect x="280" y="340" width="80" height="40" rx="8" ry="8" fill="#e3b9b0" stroke="#d19189" stroke-width="1"/>
  <text x="320" y="355" class="tiny-text" fill="#a6655b">Handle-3</text>
  <text x="320" y="370" class="tiny-text" fill="#a6655b">RWX</text>

  <rect x="380" y="340" width="80" height="40" rx="8" ry="8" fill="#e3b9b0" stroke="#d19189" stroke-width="1"/>
  <text x="420" y="355" class="tiny-text" fill="#a6655b">Handle-4</text>
  <text x="420" y="370" class="tiny-text" fill="#a6655b">W</text>

  <rect x="540" y="340" width="80" height="40" rx="8" ry="8" fill="#e3b9b0" stroke="#d19189" stroke-width="1"/>
  <text x="580" y="355" class="tiny-text" fill="#a6655b">Handle-5</text>
  <text x="580" y="370" class="tiny-text" fill="#a6655b">R</text>

  <rect x="640" y="340" width="80" height="40" rx="8" ry="8" fill="#e3b9b0" stroke="#d19189" stroke-width="1"/>
  <text x="680" y="355" class="tiny-text" fill="#a6655b">Handle-6</text>
  <text x="680" y="370" class="tiny-text" fill="#a6655b">RWX</text>

  <!-- Стрелки от ядра к приложениям (выдача дескрипторов) -->
  <line x1="450" y1="160" x2="180" y2="220" class="arrow" stroke="#6ba3e6" marker-end="url(#arrowhead-blue)"/>
  <text x="300" y="180" class="tiny-text" fill="#6ba3e6" transform="rotate(-12, 300, 180)">Выдача дескрипторов</text>

  <line x1="500" y1="160" x2="370" y2="220" class="arrow" stroke="#6ba3e6" marker-end="url(#arrowhead-blue)"/>

  <line x1="550" y1="160" x2="600" y2="220" class="arrow" stroke="#6ba3e6" marker-end="url(#arrowhead-blue)"/>

  <!-- Стрелки от приложений к дескрипторам -->
  <line x1="140" y1="300" x2="90" y2="340" class="arrow" stroke="#7db87d" marker-end="url(#arrowhead-green)"/>
  <line x1="160" y1="300" x2="190" y2="340" class="arrow" stroke="#7db87d" marker-end="url(#arrowhead-green)"/>

  <line x1="350" y1="300" x2="320" y2="340" class="arrow" stroke="#6ba3e6" marker-end="url(#arrowhead-blue)"/>
  <line x1="390" y1="300" x2="420" y2="340" class="arrow" stroke="#6ba3e6" marker-end="url(#arrowhead-blue)"/>

  <line x1="610" y1="300" x2="580" y2="340" class="arrow" stroke="#c5789f" marker-end="url(#arrowhead-purple)"/>

  <!-- Стрелки от дескрипторов к объектам -->
  <line x1="120" y1="380" x2="180" y2="420" class="arrow" stroke="#7db87d" marker-end="url(#arrowhead-green)"/>
  <line x1="210" y1="380" x2="350" y2="420" class="arrow" stroke="#7db87d" marker-end="url(#arrowhead-green)"/>

  <line x1="340" y1="380" x2="390" y2="420" class="arrow" stroke="#6ba3e6" marker-end="url(#arrowhead-blue)"/>
  <line x1="440" y1="380" x2="520" y2="420" class="arrow" stroke="#6ba3e6" marker-end="url(#arrowhead-blue)"/>

  <line x1="600" y1="380" x2="690" y2="420" class="arrow" stroke="#c5789f" marker-end="url(#arrowhead-purple)"/>

  <!-- Делегирование дескрипторов -->
  <line x1="860" y1="300" x2="680" y2="340" class="arrow" stroke="#d4b847" marker-end="url(#arrowhead-orange)"/>
  <text x="790" y="330" class="tiny-text" fill="#d4b847" transform="rotate(-12, 780, 315)">Делегирование</text>

</svg>
