
<svg width="800" height="600" viewBox="0 0 800 600" xmlns="http://www.w3.org/2000/svg">
  <!-- Title -->
  <rect x="300" y="20" width="200" height="40" rx="8" fill="#E8D4F2" stroke="#D4B5E8" stroke-width="2"/>
  <text x="400" y="45" text-anchor="middle" font-family="Arial, sans-serif" font-size="18" font-weight="bold" fill="#6B4C7A">RISC-V Extensions</text>
  
  <!-- Base ISA -->
  <rect x="50" y="100" width="120" height="60" rx="10" fill="#FFE4E1" stroke="#FFB6C1" stroke-width="2"/>
  <text x="110" y="135" text-anchor="middle" font-family="Arial, sans-serif" font-size="16" font-weight="bold" fill="#8B4545">RV32I</text>
  
  <rect x="190" y="100" width="120" height="60" rx="10" fill="#FFE4E1" stroke="#FFB6C1" stroke-width="2"/>
  <text x="250" y="135" text-anchor="middle" font-family="Arial, sans-serif" font-size="16" font-weight="bold" fill="#8B4545">RV64I</text>
  
  <rect x="330" y="100" width="120" height="60" rx="10" fill="#FFE4E1" stroke="#FFB6C1" stroke-width="2"/>
  <text x="390" y="135" text-anchor="middle" font-family="Arial, sans-serif" font-size="16" font-weight="bold" fill="#8B4545">RV128I</text>
  
  <!-- Standard Extensions -->
  <rect x="50" y="200" width="100" height="50" rx="8" fill="#E6E6FA" stroke="#B8B8E0" stroke-width="2"/>
  <text x="100" y="230" text-anchor="middle" font-family="Arial, sans-serif" font-size="14" fill="#4B4B8B">M</text>
  
  <rect x="170" y="200" width="100" height="50" rx="8" fill="#F0E68C" stroke="#DAA520" stroke-width="2"/>
  <text x="220" y="230" text-anchor="middle" font-family="Arial, sans-serif" font-size="14" fill="#8B7500">A</text>
  
  <rect x="290" y="200" width="100" height="50" rx="8" fill="#98FB98" stroke="#90EE90" stroke-width="2"/>
  <text x="340" y="230" text-anchor="middle" font-family="Arial, sans-serif" font-size="14" fill="#2E8B57">F</text>
  
  <rect x="410" y="200" width="100" height="50" rx="8" fill="#87CEEB" stroke="#4682B4" stroke-width="2"/>
  <text x="460" y="230" text-anchor="middle" font-family="Arial, sans-serif" font-size="14" fill="#1E4D6B">D</text>
  
  <rect x="530" y="200" width="100" height="50" rx="8" fill="#FFB6C1" stroke="#FF69B4" stroke-width="2"/>
  <text x="580" y="230" text-anchor="middle" font-family="Arial, sans-serif" font-size="14" fill="#8B1538">Q</text>
  
  <rect x="650" y="200" width="100" height="50" rx="8" fill="#DDA0DD" stroke="#BA55D3" stroke-width="2"/>
  <text x="700" y="230" text-anchor="middle" font-family="Arial, sans-serif" font-size="14" fill="#6B238E">C</text>
  
  <!-- Additional Extensions -->
  <rect x="50" y="290" width="100" height="50" rx="8" fill="#F0FFFF" stroke="#B0E0E6" stroke-width="2"/>
  <text x="100" y="320" text-anchor="middle" font-family="Arial, sans-serif" font-size="14" fill="#4682B4">V</text>
  
  <rect x="170" y="290" width="100" height="50" rx="8" fill="#F5DEB3" stroke="#DEB887" stroke-width="2"/>
  <text x="220" y="320" text-anchor="middle" font-family="Arial, sans-serif" font-size="14" fill="#8B7355">B</text>
  
  <rect x="290" y="290" width="100" height="50" rx="8" fill="#E0BBE4" stroke="#C39BD3" stroke-width="2"/>
  <text x="340" y="320" text-anchor="middle" font-family="Arial, sans-serif" font-size="14" fill="#6C3483">P</text>
  
  <rect x="410" y="290" width="100" height="50" rx="8" fill="#FFDAB9" stroke="#FFB6A3" stroke-width="2"/>
  <text x="460" y="320" text-anchor="middle" font-family="Arial, sans-serif" font-size="14" fill="#CD853F">J</text>
  
  <rect x="530" y="290" width="100" height="50" rx="8" fill="#E1F5E1" stroke="#B8E6B8" stroke-width="2"/>
  <text x="580" y="320" text-anchor="middle" font-family="Arial, sans-serif" font-size="14" fill="#4A7C4A">T</text>
  
  <rect x="650" y="290" width="100" height="50" rx="8" fill="#FFE4B5" stroke="#FFDEAD" stroke-width="2"/>
  <text x="700" y="320" text-anchor="middle" font-family="Arial, sans-serif" font-size="14" fill="#CD853F">Zk</text>
  
  <!-- Supervisor Extensions -->
  <rect x="50" y="380" width="120" height="50" rx="8" fill="#D4E1F5" stroke="#A7C7E7" stroke-width="2"/>
  <text x="110" y="410" text-anchor="middle" font-family="Arial, sans-serif" font-size="14" fill="#4A5F7A">S</text>
  
  <rect x="190" y="380" width="120" height="50" rx="8" fill="#F5E1D4" stroke="#E7C7A7" stroke-width="2"/>
  <text x="250" y="410" text-anchor="middle" font-family="Arial, sans-serif" font-size="14" fill="#7A5F4A">H</text>
  
  <!-- Custom Extensions -->
  <rect x="50" y="470" width="150" height="50" rx="8" fill="#F0F0F0" stroke="#D0D0D0" stroke-width="2"/>
  <text x="125" y="500" text-anchor="middle" font-family="Arial, sans-serif" font-size="14" fill="#606060">X-extensions</text>
  
  <!-- Groups -->
  <rect x="480" y="100" width="250" height="60" rx="10" fill="#F5F5DC" stroke="#D2B48C" stroke-width="2" stroke-dasharray="5,5"/>
  <text x="605" y="135" text-anchor="middle" font-family="Arial, sans-serif" font-size="16" font-weight="bold" fill="#8B6914">G = IMAFD</text>
</svg>
